<svg id="Calque_1" data-name="Calque 1" xmlns="http://www.w3.org/2000/svg" width="275" height="99.32" viewBox="0 0 275 99.32"><defs><style>.cls-1{fill:#b10932;}</style></defs><title>logo-gain-health</title><rect class="cls-1" x="25.95" y="60.01" width="37.16" height="6.94"/><path class="cls-1" d="M44.68,61.08A44.73,44.73,0,0,1,0,16.4H2.6a42.09,42.09,0,0,0,84.17,0h2.6A44.73,44.73,0,0,1,44.68,61.08"/><path class="cls-1" d="M59.9,45.51c.47-11.83,9.92-8.93,15.95-11.71l.06.08c-4.27,5.08-4,14.95-15.52,12.28Z"/><path class="cls-1" d="M28.08,45.69C16.52,48.28,16.9,38.41,12.67,33.3l.05-.08c6,2.82,15.48,0,15.86,11.83Z"/><path class="cls-1" d="M42.06,53.45c-11.81-.74-8.71-10.11-11.35-16.19l.07-.07c5,4.38,14.86,4.31,11.94,15.78Z"/><path class="cls-1" d="M47.06,52.12c-2.83-11.49,7-11.34,12.06-15.68l.07.06c-2.67,6.07.35,15.47-11.47,16.1Z"/><path class="cls-1" d="M19,31.09c-11.83-.46-9-9.9-11.74-15.92l.07-.05c5.1,4.24,15,3.92,12.32,15.47Z"/><path class="cls-1" d="M72,31.64c-4.39-11,5.41-12.2,9.78-17.19l.09.05C80.06,20.88,84.34,29.77,72.73,32Z"/><path class="cls-1" d="M30.8,34.14c-11.57-2.5-7.11-11.3-8.8-17.71l.08-.05c4.28,5.07,14.05,6.48,9.44,17.38Z"/><path class="cls-1" d="M60.37,34.25c-5-10.71,4.65-12.51,8.71-17.76l.09,0C67.74,23,72.57,31.62,61.12,34.6Z"/><path class="cls-1" d="M43.15,38.8c-11.27-3.65-5.92-12-7-18.51l.09,0C40,25.73,49.59,28.12,43.91,38.5Z"/><path class="cls-1" d="M56.32,15.92c-3.39,5.71-12.8,8.68-6.48,18.7l.77.24c11-4.33,5.18-12.3,5.8-18.91ZM50.57,33.83l-.1,0"/><path class="cls-1" d="M114,31.5a15.69,15.69,0,0,0,1.11,5.8A8.48,8.48,0,0,0,123.34,43a9.6,9.6,0,0,0,6.37-2.32c1.85-1.56,2.78-4,2.78-7.5a12.23,12.23,0,0,0-2.78-8.42,9.09,9.09,0,0,0-13.22-.54Q114,26.76,114,31.5m12.36,28.22c-4.17,0-6.77.06-7.83.16a4.47,4.47,0,0,0-1.8.84c-2.26,1.55-3.45,2.41-3.6,2.58a5.31,5.31,0,0,0-.93,1.71,13.35,13.35,0,0,0-.87,4.71,9.49,9.49,0,0,0,3.42,7.4q3.42,3,9.43,3a18.45,18.45,0,0,0,8.12-1.77,12.81,12.81,0,0,0,5.54-4.84,11.73,11.73,0,0,0,1.87-6.14,10.76,10.76,0,0,0-.82-4,6.45,6.45,0,0,0-1.67-2.16,7.72,7.72,0,0,0-2.7-1.3q-1-.12-8.16-.16m22-37.68.33.81c-1.06,1.66-1.78,2.8-2.11,3.41h-7.86a12.76,12.76,0,0,1,1,4.66,12.92,12.92,0,0,1-1.66,6.22,14.62,14.62,0,0,1-4.83,5.19,18.85,18.85,0,0,1-6.79,2.91,28,28,0,0,1-6.32.42,18.6,18.6,0,0,0-3.43,3.27,3.08,3.08,0,0,0-.45,1.65,2.81,2.81,0,0,0,.6,1.77,3.28,3.28,0,0,0,1.86,1.1,28.13,28.13,0,0,0,6.7.53l9-.22A16.28,16.28,0,0,1,141.6,55a7.74,7.74,0,0,1,3.62,3.78,13.51,13.51,0,0,1,1.17,5.72,16.36,16.36,0,0,1-2.83,8.79,19.23,19.23,0,0,1-8.42,7.06,29.66,29.66,0,0,1-12.52,2.57,24.55,24.55,0,0,1-9.87-1.79,13.49,13.49,0,0,1-6-4.82,11.45,11.45,0,0,1-2-6.32,9.94,9.94,0,0,1,.58-3.44,13.49,13.49,0,0,1,1.94-3.46A38.61,38.61,0,0,0,114.67,59a12,12,0,0,1-4.46-2.15,3,3,0,0,1-1-2,22,22,0,0,1,1.27-4.56c1.38-1.15,3.54-2.77,6.5-4.89a20,20,0,0,1-5.87-2.45,9.4,9.4,0,0,1-3.2-3.83,12.15,12.15,0,0,1-1.14-5.32A13.84,13.84,0,0,1,109,26.11c1.47-2.26,3.91-4.09,7.36-5.51a25.32,25.32,0,0,1,9.58-2.13,15.91,15.91,0,0,1,5.44.94,17.09,17.09,0,0,1,4.9,2.79q7.91,0,12.16-.16"/><path class="cls-1" d="M178.28,37a82.79,82.79,0,0,0-9.34,2,17.75,17.75,0,0,0-5.47,2.35,5.73,5.73,0,0,0-1.68,2.15,9.77,9.77,0,0,0-1.1,4.66A6.57,6.57,0,0,0,162.42,53a6.41,6.41,0,0,0,4.79,1.75,10.91,10.91,0,0,0,5.58-1.61,21.9,21.9,0,0,0,5.49-4.84Zm-19.36-6.58-2.23-.58c0-.65,0-1.54,0-2.66s0-2.12,0-2.83a44.44,44.44,0,0,1,8.76-4.72,18.25,18.25,0,0,1,5.86-.89,16.56,16.56,0,0,1,8.1,1.81,11.4,11.4,0,0,1,4.9,5.17,15.56,15.56,0,0,1,1.09,6.44l-.22,7.69V52.35a8.72,8.72,0,0,0,.34,2.9,1.8,1.8,0,0,0,.8.93,4.54,4.54,0,0,0,1.78.33l2.76.26v2.44c-2.3-.22-4.33-.33-6.06-.33s-3.93.11-6.74.33l.22-7.45c-5.73,4.33-9.14,6.76-10.2,7.31a9,9,0,0,1-4.05.81q-5.1,0-7.95-2.71A9.49,9.49,0,0,1,153.23,50a13.78,13.78,0,0,1,1-5.3,11.86,11.86,0,0,1,2.39-3.81,10.12,10.12,0,0,1,2.82-2.08,44.47,44.47,0,0,1,7.95-2.44,94.54,94.54,0,0,1,10.9-1.94,15.32,15.32,0,0,0-1-6.24,8.19,8.19,0,0,0-3.42-3.67A11.24,11.24,0,0,0,168,23a12.9,12.9,0,0,0-4.37.68,7,7,0,0,0-2.3,1.15l-.76,1.52q-1.14,2.55-1.68,4"/><path class="cls-1" d="M205,0a4.56,4.56,0,0,1,3.35,1.39,4.63,4.63,0,0,1,1.36,3.36,4.5,4.5,0,0,1-1.39,3.32A4.5,4.5,0,0,1,205,9.46a4.58,4.58,0,0,1-3.37-1.39,4.53,4.53,0,0,1-1.38-3.32,4.57,4.57,0,0,1,1.38-3.36A4.62,4.62,0,0,1,205,0M194.75,24.71V22.26a42.89,42.89,0,0,0,13.56-3.56l.92.67Q209,28.31,209,33.05v7.64c.14,7.28.23,11.2.25,11.8a8.34,8.34,0,0,0,.47,3,1.92,1.92,0,0,0,.54.66,2.6,2.6,0,0,0,1,.44c.17,0,1.71.07,4.64.13v2.44c-4.24-.22-7.64-.33-10.18-.33q-3.34,0-11,.33V56.77l4,0a3,3,0,0,0,1.37-.32,1.87,1.87,0,0,0,.73-.69,7.53,7.53,0,0,0,.6-3c0-.36.07-4.35.22-12V33.38c0-4.17-.14-6.63-.43-7.42a1.72,1.72,0,0,0-.89-.93c-.43-.22-2.3-.32-5.59-.32"/><path class="cls-1" d="M219.16,59.21V56.77l4-.05a3,3,0,0,0,1.37-.31,2,2,0,0,0,.73-.7,7.57,7.57,0,0,0,.59-3q0-.54.22-12.07v-5c0-2.24-.08-4.65-.22-7.24a9.53,9.53,0,0,0-.39-2.94,1.66,1.66,0,0,0-.93-.69,29,29,0,0,0-5.36-.19V22.15q8.4-1.17,12.28-3a3.24,3.24,0,0,1,1.13-.42.55.55,0,0,1,.45.21,1,1,0,0,1,.17.64c0,.19,0,.42,0,.67-.06,1-.13,3.16-.19,6.43L240.81,20a19.17,19.17,0,0,1,6.54-1.26,15.59,15.59,0,0,1,6.49,1.38,11.35,11.35,0,0,1,4.6,3.49,11.88,11.88,0,0,1,2.05,5.3,101.4,101.4,0,0,1,.3,10.54v7.44q0,5.46.22,7.44a3.52,3.52,0,0,0,.65,1.74,2.22,2.22,0,0,0,1.38.61l4.54.13v2.44q-4.06-.33-6.76-.33-2.32,0-7.71.33.44-10.4.44-13.14V39a45.51,45.51,0,0,0-.51-8.67,7.68,7.68,0,0,0-3.26-4.55A10.66,10.66,0,0,0,243.64,24a11.36,11.36,0,0,0-5.8,1.52A9.81,9.81,0,0,0,234.08,29c-.74,1.31-1.12,3.5-1.12,6.57v5.09q.22,10.92.23,11.8a8.92,8.92,0,0,0,.5,3.06,1.66,1.66,0,0,0,.52.66,2.65,2.65,0,0,0,1.06.44c.17,0,1.73.07,4.69.13v2.44c-3.43-.22-6.52-.33-9.29-.33q-3.53,0-11.51.33"/><path class="cls-1" d="M164.76,77.5a11.91,11.91,0,0,1-1.66.49,11,11,0,0,1-2.15.22,6,6,0,0,1-2.72-.6,4.44,4.44,0,0,1-1.85-1.68,4.88,4.88,0,0,1-.65-2.55,4.59,4.59,0,0,1,1.64-3.69,5.05,5.05,0,0,1,1.4-.86,7.05,7.05,0,0,1,2.64-.43,8.64,8.64,0,0,1,1.55.17c.55.11,1.16.26,1.84.45-.06.22-.11.44-.15.65s-.08.66-.14,1.33h-.39l0-.75c0-.12,0-.21,0-.28a.77.77,0,0,0-.09-.27,1.58,1.58,0,0,0-.57-.43,7.39,7.39,0,0,0-1.13-.34,5.34,5.34,0,0,0-1.05-.08,4.23,4.23,0,0,0-2.19.53,3.46,3.46,0,0,0-1.41,1.54,5.24,5.24,0,0,0,.08,4.55,3.94,3.94,0,0,0,1.5,1.6,4.18,4.18,0,0,0,2.18.55,5.93,5.93,0,0,0,1.13-.11,4,4,0,0,0,.94-.32,7.75,7.75,0,0,0,0-.84v-.74a2,2,0,0,0-.06-.68c0-.07-.15-.12-.32-.15a10.92,10.92,0,0,0-1.2-.08v-.41l2.06,0c.4,0,.81,0,1.23,0l0,.31-.49.3a10.31,10.31,0,0,0-.08,1.31,9.91,9.91,0,0,0,.08,1.29"/><path class="cls-1" d="M166,78v-.36h.65a.42.42,0,0,0,.22,0,.28.28,0,0,0,.13-.11,1.43,1.43,0,0,0,.08-.47c0-.06,0-.69,0-1.9V72.35c0-.73,0-1.5,0-2.28a4.81,4.81,0,0,0-.07-.89.17.17,0,0,0-.11-.09,4.3,4.3,0,0,0-.92,0v-.37A7.12,7.12,0,0,0,168,68.2a.33.33,0,0,1,.14,0,.09.09,0,0,1,.07,0,.11.11,0,0,1,0,.08.72.72,0,0,1,0,.13v.22c0,.79,0,1.46-.05,2v4.47c0,1.15,0,1.77,0,1.86a1.56,1.56,0,0,0,.08.48.24.24,0,0,0,.09.11.84.84,0,0,0,.16.07l.75,0V78c-.6,0-1.13-.05-1.59-.05s-1,0-1.72.05"/><path class="cls-1" d="M171.29,74.49a5.48,5.48,0,0,0,.27,1.66,2.45,2.45,0,0,0,.8,1.23,1.82,1.82,0,0,0,1.13.39,1.68,1.68,0,0,0,1.3-.61,2.85,2.85,0,0,0,.52-1.88,4.84,4.84,0,0,0-.31-1.83,2.34,2.34,0,0,0-.79-1.08,1.94,1.94,0,0,0-1.07-.31,1.7,1.7,0,0,0-1.34.59,2.75,2.75,0,0,0-.51,1.84M170,75a3.26,3.26,0,0,1,1-2.41,3.33,3.33,0,0,1,2.43-.94,3,3,0,0,1,3.14,3.13,3.52,3.52,0,0,1-.45,1.76,3.17,3.17,0,0,1-1.28,1.26,3.68,3.68,0,0,1-1.81.45,2.84,2.84,0,0,1-1.3-.26,2.66,2.66,0,0,1-.87-.64,2.92,2.92,0,0,1-.5-.81A3.78,3.78,0,0,1,170,75"/><path class="cls-1" d="M179.08,73.74v2.5a1.19,1.19,0,0,0,0,.42.57.57,0,0,0,.22.25,2.47,2.47,0,0,0,.65.38,2.34,2.34,0,0,0,.79.13,1.71,1.71,0,0,0,1.5-.74,3.16,3.16,0,0,0,.53-1.85,3,3,0,0,0-.26-1.3,1.67,1.67,0,0,0-.68-.79,1.83,1.83,0,0,0-1-.27,1.87,1.87,0,0,0-1.14.37,1.69,1.69,0,0,0-.67.9m-1.2,4.3c0-.56.06-.91.07-1.05,0-1,0-1.52,0-1.7V72.35q0-1.11,0-2.28a4.81,4.81,0,0,0-.07-.89.19.19,0,0,0-.11-.09,4.38,4.38,0,0,0-.92,0v-.37a7.21,7.21,0,0,0,2.07-.47.3.3,0,0,1,.13,0s.06,0,.07,0a.11.11,0,0,1,0,.08.72.72,0,0,1,0,.13v.22c0,.79,0,1.45,0,2l0,1V73l.92-.9a2.11,2.11,0,0,1,.59-.3,2.62,2.62,0,0,1,.88-.15,2.47,2.47,0,0,1,1.31.35,2.25,2.25,0,0,1,.87,1,3.19,3.19,0,0,1,.31,1.39,3.49,3.49,0,0,1-.18,1.11,3.63,3.63,0,0,1-.44.93,1.74,1.74,0,0,1-.35.43l-1,.7a4.38,4.38,0,0,1-.93.56,2.55,2.55,0,0,1-.85.12,2.73,2.73,0,0,1-.83-.12,3.43,3.43,0,0,1-.81-.41l-.51.51Z"/><path class="cls-1" d="M189,74.48a12.75,12.75,0,0,0-1.47.33,2.79,2.79,0,0,0-.87.38.85.85,0,0,0-.26.34,1.54,1.54,0,0,0-.17.75,1.06,1.06,0,0,0,.27.77,1,1,0,0,0,.75.28,1.63,1.63,0,0,0,.88-.26,3.48,3.48,0,0,0,.87-.76Zm-3.06-1-.35-.09V72.5a6.77,6.77,0,0,1,1.39-.75,2.91,2.91,0,0,1,.92-.14,2.66,2.66,0,0,1,1.28.29,1.8,1.8,0,0,1,.77.82,2.55,2.55,0,0,1,.18,1l0,1.22v2a1.7,1.7,0,0,0,0,.47.29.29,0,0,0,.13.14.59.59,0,0,0,.27.06l.43,0V78c-.36,0-.68-.05-1-.05s-.62,0-1.06.05l0-1.16c-.91.69-1.44,1.07-1.61,1.16a1.48,1.48,0,0,1-.64.13,1.73,1.73,0,0,1-1.25-.44,1.48,1.48,0,0,1-.45-1.14,2.24,2.24,0,0,1,.15-.84,1.82,1.82,0,0,1,.38-.6,1.48,1.48,0,0,1,.45-.33,6.24,6.24,0,0,1,1.25-.39,15.18,15.18,0,0,1,1.72-.31,2.55,2.55,0,0,0-.15-1,1.31,1.31,0,0,0-.54-.58,1.83,1.83,0,0,0-.93-.23,2.08,2.08,0,0,0-.69.11.94.94,0,0,0-.36.18l-.12.24c-.12.26-.22.47-.27.62"/><path class="cls-1" d="M191.58,78v-.36h.64a.44.44,0,0,0,.23,0,.22.22,0,0,0,.12-.11,1.17,1.17,0,0,0,.09-.47c0-.06,0-.69,0-1.9V72.35c0-.73,0-1.5,0-2.28a4.81,4.81,0,0,0-.07-.89.19.19,0,0,0-.11-.09,4.38,4.38,0,0,0-.92,0v-.37a7.21,7.21,0,0,0,2.07-.47.33.33,0,0,1,.14,0,.09.09,0,0,1,.07,0,.19.19,0,0,1,0,.08.72.72,0,0,1,0,.13v.22c0,.79,0,1.46,0,2v4.47q0,1.73,0,1.86a1.35,1.35,0,0,0,.07.48.24.24,0,0,0,.09.11.62.62,0,0,0,.16.07l.75,0V78c-.6,0-1.13-.05-1.59-.05s-1,0-1.72.05"/><path class="cls-1" d="M201.37,74.36h3.35l-1.65-4ZM198.3,78V77.6a3.25,3.25,0,0,0,.65,0,.56.56,0,0,0,.24-.13,2.36,2.36,0,0,0,.32-.54c.08-.16.36-.78.86-1.86L202,71.27c.18-.41.57-1.33,1.17-2.74h.41l2.84,6.65c.46,1.08.77,1.76.92,2a.72.72,0,0,0,.28.31,2,2,0,0,0,.67.08V78L206.86,78l-2.15.05V77.6a7.86,7.86,0,0,0,.9,0,.35.35,0,0,0,.22-.1.2.2,0,0,0,0-.15,1.13,1.13,0,0,0-.09-.38l-.81-2h-3.82l-.71,1.7a1.87,1.87,0,0,0-.19.67.25.25,0,0,0,.05.15.42.42,0,0,0,.23.12,6.33,6.33,0,0,0,.86.06V78c-.75,0-1.31-.05-1.68-.05s-.91,0-1.42.05"/><path class="cls-1" d="M210.67,78c.46,0,1,0,1.59.05v-.36l-.75,0a.62.62,0,0,1-.16-.07.23.23,0,0,1-.08-.11,1.12,1.12,0,0,1-.08-.48c0-.09,0-.71,0-1.86V70.64c0-.56,0-1.23.05-2V68.4a.72.72,0,0,0,0-.13.11.11,0,0,0,0-.08.1.1,0,0,0-.08,0,.34.34,0,0,0-.13,0,7,7,0,0,1-2.07.47V69a4.23,4.23,0,0,1,.92,0,.17.17,0,0,1,.11.09,4,4,0,0,1,.07.89c0,.78,0,1.55,0,2.28V75.1c0,1.22,0,1.85,0,1.91a1,1,0,0,1-.08.47.28.28,0,0,1-.13.11.42.42,0,0,1-.22,0H209V78c.71,0,1.28-.05,1.71-.05"/><path class="cls-1" d="M212.9,78v-.36h.64a.46.46,0,0,0,.23,0,.32.32,0,0,0,.12-.11A1.17,1.17,0,0,0,214,77c0-.06,0-.69,0-1.9V72.35c0-.73,0-1.5,0-2.28a6.1,6.1,0,0,0-.07-.89.23.23,0,0,0-.11-.09,4.36,4.36,0,0,0-.93,0v-.37A7.21,7.21,0,0,0,215,68.2a.27.27,0,0,1,.13,0,.09.09,0,0,1,.07,0,.11.11,0,0,1,0,.08.37.37,0,0,1,0,.13v.22c0,.79,0,1.46,0,2v4.47c0,1.15,0,1.77,0,1.86a1.12,1.12,0,0,0,.08.48.31.31,0,0,0,.08.11.73.73,0,0,0,.17.07l.75,0V78c-.61,0-1.14-.05-1.59-.05s-1,0-1.72.05"/><path class="cls-1" d="M218.42,68.7a.72.72,0,0,1,.53.21A.76.76,0,0,1,219,70a.74.74,0,0,1-.53.21.72.72,0,0,1-.52-.21.76.76,0,0,1,0-1.07.72.72,0,0,1,.52-.21m-1.6,3.85v-.37a6.66,6.66,0,0,0,2.13-.57l.15.11c0,1,0,1.67,0,2.17V75.1c0,1.15,0,1.78,0,1.87a1.63,1.63,0,0,0,.07.48l.09.11a.84.84,0,0,0,.16.07l.75,0V78c-.68,0-1.22-.05-1.62-.05s-.94,0-1.74.05v-.36h.64a.45.45,0,0,0,.22,0,.32.32,0,0,0,.12-.11,1.34,1.34,0,0,0,.1-.48s0-.69,0-1.9V73.92a5.11,5.11,0,0,0-.07-1.18.27.27,0,0,0-.14-.14,3.51,3.51,0,0,0-.89,0"/><path class="cls-1" d="M225,74.48a13.8,13.8,0,0,0-1.47.33,2.72,2.72,0,0,0-.86.38,1,1,0,0,0-.27.34,1.66,1.66,0,0,0-.17.75,1,1,0,0,0,1,1,1.63,1.63,0,0,0,.88-.26,3.29,3.29,0,0,0,.86-.76Zm-3.06-1-.35-.09c0-.1,0-.24,0-.42s0-.33,0-.44a7.33,7.33,0,0,1,1.39-.75,3,3,0,0,1,.93-.14,2.66,2.66,0,0,1,1.28.29,1.8,1.8,0,0,1,.77.82,2.57,2.57,0,0,1,.17,1l0,1.22v2a1.38,1.38,0,0,0,.05.47.33.33,0,0,0,.12.14.69.69,0,0,0,.28.06l.43,0V78c-.36,0-.68-.05-.95-.05s-.62,0-1.06.05l0-1.16A19.09,19.09,0,0,1,223.34,78a1.47,1.47,0,0,1-.63.13,1.74,1.74,0,0,1-1.26-.44,1.48,1.48,0,0,1-.44-1.14,2.24,2.24,0,0,1,.15-.84,1.82,1.82,0,0,1,.38-.6,1.45,1.45,0,0,1,.44-.33,6.39,6.39,0,0,1,1.26-.39,15,15,0,0,1,1.71-.31,2.37,2.37,0,0,0-.15-1,1.31,1.31,0,0,0-.54-.58,1.78,1.78,0,0,0-.93-.23,2.08,2.08,0,0,0-.69.11,1.14,1.14,0,0,0-.36.18l-.12.24c-.12.26-.21.47-.27.62"/><path class="cls-1" d="M229.24,78c.44,0,.93,0,1.47.05v-.36l-.74,0a.49.49,0,0,1-.16-.07.31.31,0,0,1-.09-.11,1.58,1.58,0,0,1-.08-.49c0-.09,0-.72,0-1.87v-.81a2.17,2.17,0,0,1,.18-1,1.33,1.33,0,0,1,.58-.54,1.83,1.83,0,0,1,.9-.23,1.65,1.65,0,0,1,1,.27,1.23,1.23,0,0,1,.51.72,7.53,7.53,0,0,1,.08,1.37v1.11c0,.29,0,1-.07,2.07L234,78c.28,0,.64,0,1.07.05v-.36l-.71,0a.41.41,0,0,1-.22-.1.53.53,0,0,1-.1-.28c0-.2,0-.6,0-1.18V74.9c0-.92,0-1.47,0-1.68a1.88,1.88,0,0,0-.33-.83,1.59,1.59,0,0,0-.72-.55,2.37,2.37,0,0,0-1-.23,3.07,3.07,0,0,0-1,.2l-1.23,1.06c0-.51,0-.84,0-1v-.11a.15.15,0,0,0,0-.1.1.1,0,0,0-.08,0,.49.49,0,0,0-.17.06,6.92,6.92,0,0,1-2,.48v.37a3.94,3.94,0,0,1,.87,0,.25.25,0,0,1,.15.11,1.37,1.37,0,0,1,.06.46c0,.41,0,.79,0,1.15v.79c0,1.22,0,1.86,0,1.91a1.19,1.19,0,0,1-.09.48.43.43,0,0,1-.12.11.45.45,0,0,1-.22,0h-.65V78c.85,0,1.45-.05,1.83-.05"/><path class="cls-1" d="M240.87,77.25l-.27.44a3.66,3.66,0,0,1-1.91.47,3,3,0,0,1-2.21-.83,3.16,3.16,0,0,1-.81-2.29,3.62,3.62,0,0,1,.22-1.34,2.45,2.45,0,0,1,.54-.89,4.2,4.2,0,0,1,.83-.56,8,8,0,0,1,.85-.44,2.69,2.69,0,0,1,1.07-.2,4.44,4.44,0,0,1,1.08.13,2.15,2.15,0,0,1,.61.27c-.06.34-.1.59-.12.77s-.05.49-.08.94h-.37a5.94,5.94,0,0,0-.08-.79.41.41,0,0,0-.12-.18,2.31,2.31,0,0,0-.61-.31,2.38,2.38,0,0,0-.81-.14,2,2,0,0,0-1,.23,1.5,1.5,0,0,0-.63.72,2.93,2.93,0,0,0-.22,1.22,4,4,0,0,0,.31,1.61,2.21,2.21,0,0,0,.86,1.06,2.27,2.27,0,0,0,1.21.33,2.44,2.44,0,0,0,.66-.08,4.89,4.89,0,0,0,.81-.31Z"/><path class="cls-1" d="M242.73,74.29l.71,0,1.38,0q.88,0,1.17,0c0-.11,0-.19,0-.25a2.32,2.32,0,0,0-.43-1.54,1.45,1.45,0,0,0-1.15-.49,1.56,1.56,0,0,0-1.22.53,2.61,2.61,0,0,0-.47,1.7M247,77l-.21.47a7.16,7.16,0,0,1-.67.39,5.35,5.35,0,0,1-.71.24,3.89,3.89,0,0,1-.85.09A3.43,3.43,0,0,1,243,77.8a2.57,2.57,0,0,1-1.1-1.09,3.41,3.41,0,0,1-.4-1.69,4.19,4.19,0,0,1,.21-1.37,2.48,2.48,0,0,1,.48-.9,3.36,3.36,0,0,1,.59-.49,4.84,4.84,0,0,1,.8-.43,3,3,0,0,1,1.14-.22A2.75,2.75,0,0,1,246,72a2,2,0,0,1,.87.92,3,3,0,0,1,.29,1.31,3.91,3.91,0,0,1,0,.45,8,8,0,0,1-.86.12c-.48,0-1,0-1.44,0h-2.14a3.34,3.34,0,0,0,.33,1.53,1.93,1.93,0,0,0,.88.86,2.44,2.44,0,0,0,1.15.28,2.54,2.54,0,0,0,.81-.13,5.42,5.42,0,0,0,1-.48Z"/><path class="cls-1" d="M252.44,72.79v2.32c0,1.21,0,1.84,0,1.9a1.17,1.17,0,0,1-.09.47.26.26,0,0,1-.12.11.42.42,0,0,1-.22,0h-.64V78L253,78l1.89.05v-.36a7,7,0,0,1-1.09-.12.32.32,0,0,1-.15-.09.3.3,0,0,1-.06-.16,2.37,2.37,0,0,1,0-.52c0-.77,0-1.31,0-1.6V72.79l.84,0,.85,0,.13-.67-.07,0c-.33,0-.68,0-1,0h-.71V70.75a3.78,3.78,0,0,1,.11-1.12.87.87,0,0,1,.33-.42,1,1,0,0,1,.59-.15,1.32,1.32,0,0,1,.47.08,1.61,1.61,0,0,1,.41.25l.16,0,0-1.1a1.67,1.67,0,0,0-.53-.08,1.31,1.31,0,0,0-.64.14,2.92,2.92,0,0,0-.63.52,10.6,10.6,0,0,0-1,1,2.22,2.22,0,0,0-.3.64,4.46,4.46,0,0,0-.11,1.23v.4a8.1,8.1,0,0,1-.93.45v.26Z"/><path class="cls-1" d="M257.22,74.49a5.48,5.48,0,0,0,.27,1.66,2.45,2.45,0,0,0,.8,1.23,1.84,1.84,0,0,0,1.13.39,1.68,1.68,0,0,0,1.3-.61,2.85,2.85,0,0,0,.52-1.88,4.84,4.84,0,0,0-.31-1.83,2.34,2.34,0,0,0-.79-1.08,1.94,1.94,0,0,0-1.07-.31,1.7,1.7,0,0,0-1.34.59,2.75,2.75,0,0,0-.51,1.84M256,75a3.26,3.26,0,0,1,1-2.41,3.33,3.33,0,0,1,2.43-.94,3,3,0,0,1,3.14,3.13A3.52,3.52,0,0,1,262,76.5a3.17,3.17,0,0,1-1.28,1.26,3.68,3.68,0,0,1-1.81.45,2.84,2.84,0,0,1-1.3-.26,2.66,2.66,0,0,1-.87-.64,2.92,2.92,0,0,1-.5-.81A3.78,3.78,0,0,1,256,75"/><path class="cls-1" d="M263.24,78v-.36l.82,0a.41.41,0,0,0,.16-.06.34.34,0,0,0,.1-.13,1.56,1.56,0,0,0,.08-.48c0-1.18,0-1.8,0-1.86V74.3c0-.36,0-.74,0-1.15a1.73,1.73,0,0,0-.06-.46.25.25,0,0,0-.15-.11,4,4,0,0,0-.87,0v-.37a6.83,6.83,0,0,0,1.95-.48l.18-.06a.08.08,0,0,1,.07,0,.15.15,0,0,1,0,.1.45.45,0,0,1,0,.11c0,.26,0,.68,0,1.24a8.3,8.3,0,0,0,.55-.69c.17-.22.29-.37.36-.44a1.68,1.68,0,0,1,.45-.27,1.41,1.41,0,0,1,.54-.11,1.5,1.5,0,0,1,.54.12l0,.1c-.07.6-.11,1.12-.12,1.57h-.3a1.24,1.24,0,0,0-.35-.48.8.8,0,0,0-.5-.15,1.06,1.06,0,0,0-.85.42,1.92,1.92,0,0,0-.36,1.27v.69c0,.29,0,.83,0,1.6a2.77,2.77,0,0,0,0,.53.4.4,0,0,0,.07.16.38.38,0,0,0,.14.09,7.37,7.37,0,0,0,1.08.12V78c-.77,0-1.44-.05-2-.05s-1.12,0-1.65.05"/><path class="cls-1" d="M159.51,95.18v.42l-1.83,0-2,0v-.42a4.49,4.49,0,0,0,.94-.07.47.47,0,0,0,.24-.15,1.78,1.78,0,0,0,.09-.64c0-.1,0-.73,0-1.89V89.37c0-.6,0-1.19,0-1.76a2.13,2.13,0,0,0-.09-.75.5.5,0,0,0-.24-.17,4.49,4.49,0,0,0-.94-.07V86.2c.83,0,1.47.06,1.93.06s1.07,0,1.92-.06v.42a4.53,4.53,0,0,0-.95.07.41.41,0,0,0-.23.16,1.9,1.9,0,0,0-.1.64c0,.09,0,.71,0,1.88v3.06c0,.6,0,1.19,0,1.76a2.06,2.06,0,0,0,.09.74.37.37,0,0,0,.24.18,4.53,4.53,0,0,0,.95.07"/><path class="cls-1" d="M160.15,95.6v-.37h.64a.52.52,0,0,0,.23,0,.23.23,0,0,0,.11-.11,1.15,1.15,0,0,0,.1-.48s0-.7,0-1.92v-.79c0-.36,0-.74,0-1.15a1.37,1.37,0,0,0-.07-.48.27.27,0,0,0-.14-.11,5.47,5.47,0,0,0-.87,0v-.37a7.66,7.66,0,0,0,1.95-.47.46.46,0,0,1,.18-.07.08.08,0,0,1,.07,0,.15.15,0,0,1,0,.1.45.45,0,0,1,0,.11c0,.21,0,.53,0,1l.86-.79a1.22,1.22,0,0,1,.2-.17,1.86,1.86,0,0,1,.43-.16,2.35,2.35,0,0,1,.6-.07,2,2,0,0,1,1.12.31,2,2,0,0,1,.76.93l.73-.69a3,3,0,0,1,.33-.28,2.18,2.18,0,0,1,.49-.19,2.7,2.7,0,0,1,.62-.08,2,2,0,0,1,1.26.4,1.89,1.89,0,0,1,.65.92A7.24,7.24,0,0,1,170.5,92V93.6c0,.54,0,.86,0,1a1.7,1.7,0,0,0,.08.49.41.41,0,0,0,.09.1.4.4,0,0,0,.16.07l.75,0v.37l-1.14,0-1.16,0,0-1.83,0-.72v-.56a6.26,6.26,0,0,0-.12-1.52,1.09,1.09,0,0,0-.47-.66,1.41,1.41,0,0,0-.84-.25,1.64,1.64,0,0,0-1,.31,1.22,1.22,0,0,0-.42.58,5.17,5.17,0,0,0-.1,1.29v1.37c0,.54,0,.85,0,.94a1.64,1.64,0,0,0,.08.49l.08.1a.46.46,0,0,0,.17.07l.75,0v.37c-.65,0-1.18,0-1.57,0l-1.74,0v-.37h.65a.45.45,0,0,0,.22,0,.32.32,0,0,0,.12-.11,1.09,1.09,0,0,0,.09-.47s0-.69,0-1.9v-.52a4.22,4.22,0,0,0-.13-1.25,1.27,1.27,0,0,0-.46-.63,1.32,1.32,0,0,0-.8-.23,1.62,1.62,0,0,0-.75.17,1.31,1.31,0,0,0-.54.42,1.21,1.21,0,0,0-.21.53,7.14,7.14,0,0,0-.07,1.11v.4c0,1.15,0,1.77,0,1.86a1.64,1.64,0,0,0,.08.49l.08.1a.54.54,0,0,0,.17.07l.75,0v.37c-.62,0-1.14,0-1.57,0s-1,0-1.74,0"/><path class="cls-1" d="M174.34,94.26a2.66,2.66,0,0,0,.8.57,2.27,2.27,0,0,0,1,.2,2.05,2.05,0,0,0,1.09-.3,2.12,2.12,0,0,0,.79-.94,3.56,3.56,0,0,0,.28-1.39,2.8,2.8,0,0,0-.27-1.27,1.91,1.91,0,0,0-.78-.81,2.24,2.24,0,0,0-1-.26,1.92,1.92,0,0,0-.74.15,2.26,2.26,0,0,0-.67.43,1.65,1.65,0,0,0-.4.55,1.79,1.79,0,0,0,0,.48Zm-2.28-4.18v-.37l.51,0a7.19,7.19,0,0,0,.86-.19,3.63,3.63,0,0,0,.71-.26.41.41,0,0,1,.12,0,.12.12,0,0,1,.08,0,.16.16,0,0,1,0,.11,1.26,1.26,0,0,1,0,.16c0,.13,0,.25,0,.36v.72a10,10,0,0,1,1.4-1.18,2.56,2.56,0,0,1,1.09-.18,2.72,2.72,0,0,1,1.45.38,2.26,2.26,0,0,1,.89,1,3.15,3.15,0,0,1,.27,1.3,2.9,2.9,0,0,1-.1.79,3.85,3.85,0,0,1-.24.7,5,5,0,0,1-.33.61,2.28,2.28,0,0,1-.35.42c0,.06-.22.19-.47.4a5.62,5.62,0,0,1-.83.54,3.73,3.73,0,0,1-.62.28,2.63,2.63,0,0,1-.8.12,2.25,2.25,0,0,1-.64-.08,3.24,3.24,0,0,1-.72-.27v1c0,1.11,0,1.73,0,1.84a1,1,0,0,0,.08.47.2.2,0,0,0,.08.12.47.47,0,0,0,.17.06,7.8,7.8,0,0,0,.79,0v.37c-.55,0-1.28,0-2.19,0a11.11,11.11,0,0,0-1.17,0V99h.65a.55.55,0,0,0,.22,0,.43.43,0,0,0,.12-.11,1.19,1.19,0,0,0,.09-.48s0-.69,0-1.91V94c0-.77,0-1.56,0-2.37a13.13,13.13,0,0,0,0-1.33.31.31,0,0,0-.09-.16.42.42,0,0,0-.18-.08Z"/><path class="cls-1" d="M180.3,95.6v-.37l.81,0a.38.38,0,0,0,.18-.06.48.48,0,0,0,.09-.13,1.85,1.85,0,0,0,.08-.47c0-1.19,0-1.81,0-1.86v-.8c0-.35,0-.73,0-1.15a1.73,1.73,0,0,0-.06-.46.25.25,0,0,0-.15-.11,4,4,0,0,0-.87,0v-.37a7.25,7.25,0,0,0,2-.47.74.74,0,0,1,.18-.07.08.08,0,0,1,.07,0,.12.12,0,0,1,0,.09v.11c0,.26,0,.68,0,1.24l.54-.68a4.23,4.23,0,0,1,.36-.44,1.62,1.62,0,0,1,.45-.28,1.39,1.39,0,0,1,.53-.1,1.37,1.37,0,0,1,.55.12l0,.09a14.08,14.08,0,0,0-.12,1.58h-.3a1.29,1.29,0,0,0-.35-.49.8.8,0,0,0-.5-.15,1.07,1.07,0,0,0-.85.42,1.92,1.92,0,0,0-.35,1.27v.69c0,.29,0,.83,0,1.61a2.64,2.64,0,0,0,0,.52.34.34,0,0,0,.07.16.27.27,0,0,0,.15.09,6.79,6.79,0,0,0,1.07.12v.37c-.77,0-1.44,0-2,0s-1.12,0-1.65,0"/><path class="cls-1" d="M186.79,92.07a5.17,5.17,0,0,0,.28,1.66,2.38,2.38,0,0,0,.79,1.23,1.84,1.84,0,0,0,1.13.39,1.65,1.65,0,0,0,1.3-.61,2.83,2.83,0,0,0,.52-1.88A4.78,4.78,0,0,0,190.5,91a2.36,2.36,0,0,0-.79-1.09,1.94,1.94,0,0,0-1.07-.31,1.64,1.64,0,0,0-1.33.59,2.73,2.73,0,0,0-.52,1.84m-1.25.48a3.22,3.22,0,0,1,3.37-3.35,3.11,3.11,0,0,1,2.28.87,3,3,0,0,1,.87,2.25,3.53,3.53,0,0,1-.45,1.77,3.21,3.21,0,0,1-1.28,1.25,3.68,3.68,0,0,1-1.81.45,3,3,0,0,1-1.3-.25,2.68,2.68,0,0,1-.87-.65,3,3,0,0,1-.5-.8,3.82,3.82,0,0,1-.31-1.54"/><path class="cls-1" d="M195.88,95.67c-.17-.45-.29-.76-.36-.91L195,93.48l-1.36-3.18a1.67,1.67,0,0,0-.22-.4.41.41,0,0,0-.21-.12,2.68,2.68,0,0,0-.49,0v-.37c.73,0,1.27,0,1.61,0s.88,0,1.52,0v.37a2.56,2.56,0,0,0-.84.09.21.21,0,0,0-.13.2,3,3,0,0,0,.27.86l.81,2,.19.45c.21.53.37.88.45,1.06l.66-1.51q.06-.14.6-1.5a11.3,11.3,0,0,0,.42-1.21.88.88,0,0,0,0-.21.18.18,0,0,0-.09-.16,2.39,2.39,0,0,0-.85-.1v-.37l1.27,0,1.27,0v.37a1.4,1.4,0,0,0-.55.09.82.82,0,0,0-.27.32q-.09.16-.72,1.44L197.71,93c-.11.24-.49,1.15-1.14,2.71Z"/><path class="cls-1" d="M201.74,91.87c.13,0,.36,0,.71,0l1.37,0c.6,0,1,0,1.18,0v-.25a2.34,2.34,0,0,0-.42-1.54,1.45,1.45,0,0,0-1.15-.49,1.56,1.56,0,0,0-1.22.53,2.63,2.63,0,0,0-.47,1.7M206,94.55l-.21.48a6.49,6.49,0,0,1-.67.38,5.35,5.35,0,0,1-.71.24,3.89,3.89,0,0,1-.85.09,3.43,3.43,0,0,1-1.58-.36,2.55,2.55,0,0,1-1.1-1.08,3.55,3.55,0,0,1-.4-1.69,4.25,4.25,0,0,1,.21-1.38,2.67,2.67,0,0,1,.48-.9,3,3,0,0,1,.59-.48,4,4,0,0,1,.81-.43,2.78,2.78,0,0,1,1.13-.22,2.64,2.64,0,0,1,1.34.34,2,2,0,0,1,.88.92,3,3,0,0,1,.27,1.31,3.87,3.87,0,0,1,0,.45,6.14,6.14,0,0,1-.86.11c-.48,0-1,0-1.44,0h-2.14a3.35,3.35,0,0,0,.33,1.54,2,2,0,0,0,.87.86,2.51,2.51,0,0,0,1.16.28,2.54,2.54,0,0,0,.81-.13,5.57,5.57,0,0,0,1-.49Z"/><path class="cls-1" d="M212.25,90.74a3,3,0,0,0-.95-.72,2.26,2.26,0,0,0-1-.23,2,2,0,0,0-1,.27,1.87,1.87,0,0,0-.7.85,3.25,3.25,0,0,0-.25,1.35,2.75,2.75,0,0,0,.61,1.9,1.91,1.91,0,0,0,1.47.68,1.72,1.72,0,0,0,.8-.19,1.79,1.79,0,0,0,.63-.54,1.84,1.84,0,0,0,.34-.8,12.47,12.47,0,0,0,.05-1.43Zm-1.1-4.17v-.36a12,12,0,0,0,1.24-.2,8.36,8.36,0,0,0,1-.27l.08.06c0,.37,0,1.1,0,2.18l0,1.06v4.15c0,.45,0,.84,0,1.18a1.58,1.58,0,0,0,.08.58.37.37,0,0,0,.2.16,3.82,3.82,0,0,0,.82.12v.37l-1.13,0-1.15,0c0-.31,0-.72,0-1.24-.18.12-.41.32-.71.57s-.54.47-.71.63a3.83,3.83,0,0,1-.94.13,2.68,2.68,0,0,1-1.39-.37,2.46,2.46,0,0,1-1-1.08,3.54,3.54,0,0,1-.34-1.59,3.73,3.73,0,0,1,.21-1.25,2.38,2.38,0,0,1,.53-.92,5,5,0,0,1,.82-.57,8.91,8.91,0,0,1,1-.54,2.08,2.08,0,0,1,.87-.17,3.25,3.25,0,0,1,1.6.41V87.87a4,4,0,0,0-.08-1.12.16.16,0,0,0-.1-.11,3.93,3.93,0,0,0-.92-.07"/><path class="cls-1" d="M218.67,95.6v-.42a2.48,2.48,0,0,0,.92-.11.21.21,0,0,0,.14-.12,2.67,2.67,0,0,0,.09-.7q0-.87,0-1.5V87.36a.85.85,0,0,0,0-.28,1.05,1.05,0,0,0-.24-.29.57.57,0,0,0-.27-.13,6,6,0,0,0-.69,0v-.41l1.43.05c.34,0,.67,0,1-.05l.82,1.08L223.23,89l2,2.4,1.53,1.81c.25.28.45.51.62.68V89c0-.43,0-.94,0-1.52a2.51,2.51,0,0,0-.09-.67.35.35,0,0,0-.14-.13,3.27,3.27,0,0,0-.93-.1v-.41c.53,0,1.06.05,1.59.05s1,0,1.38-.05v.41a3.13,3.13,0,0,0-.92.1.26.26,0,0,0-.14.13,2.28,2.28,0,0,0-.09.7c0,.58,0,1.08,0,1.49v3.18q0,1,0,3.6l-.69-.2-.16,0-.07,0a2.73,2.73,0,0,1-.25-.27c-.37-.42-.64-.74-.81-1l-.86-1.09-4.72-5.66v5.14c0,.43,0,1,0,1.54a3.48,3.48,0,0,0,.08.69.32.32,0,0,0,.15.13,2.9,2.9,0,0,0,.92.1v.42c-.38,0-.81,0-1.28,0s-1.06,0-1.66,0"/><path class="cls-1" d="M237.38,95.23v.37c-.58,0-1,0-1.31,0s-.65,0-1,0c0-.36,0-.76,0-1.21a9.62,9.62,0,0,0-.94.87.88.88,0,0,1-.24.18,2.42,2.42,0,0,1-.56.24,3.37,3.37,0,0,1-.68.06,2.56,2.56,0,0,1-.89-.14,1.56,1.56,0,0,1-.6-.45,1.47,1.47,0,0,1-.3-.57,2.9,2.9,0,0,1-.11-.84c0-.15,0-.3,0-.44s0-.27,0-.41V91.75q0-.16,0-.87a2.51,2.51,0,0,0-.06-.57.23.23,0,0,0-.08-.11.75.75,0,0,0-.36-.07h-.58v-.37a5.9,5.9,0,0,0,2.06-.5.29.29,0,0,1,.17-.06.09.09,0,0,1,.07,0,.15.15,0,0,1,0,.1v.13c0,.14,0,.41,0,.81,0,.74,0,1.23,0,1.48V93a4.16,4.16,0,0,0,.11,1.13.93.93,0,0,0,.42.52,1.46,1.46,0,0,0,.78.2,2,2,0,0,0,.62-.11,1.77,1.77,0,0,0,.56-.3,2.28,2.28,0,0,0,.38-.42,2.66,2.66,0,0,0,.19-.3.91.91,0,0,0,0-.3c0-.39,0-.77,0-1.16v-.55q0-.18,0-.87a2,2,0,0,0-.06-.57.23.23,0,0,0-.08-.11.75.75,0,0,0-.36-.07H234v-.37a6,6,0,0,0,2.07-.5.31.31,0,0,1,.17-.06.11.11,0,0,1,.08,0,.15.15,0,0,1,0,.1.62.62,0,0,1,0,.13c0,.15,0,.43,0,.85,0,.72,0,1.21,0,1.46v.91l0,.93c0,.53,0,.85,0,.94a1.46,1.46,0,0,0,.07.49.41.41,0,0,0,.09.1.4.4,0,0,0,.16.07l.73,0"/><path class="cls-1" d="M238.79,90.35h.27v2.76c0,.09,0,.16,0,.24,0,.36,0,.68,0,1a1.73,1.73,0,0,0,.15.69,1,1,0,0,0,.28.36,1.76,1.76,0,0,0,.37.23,1.74,1.74,0,0,0,.56.07,3.73,3.73,0,0,0,.5,0,1.74,1.74,0,0,0,.46-.12L242,95l-.08-.26a2.86,2.86,0,0,1-.42.12l-.44,0a1.41,1.41,0,0,1-.5-.13.76.76,0,0,1-.24-.23.92.92,0,0,1-.12-.34,9.26,9.26,0,0,1,0-1.18l0-2.71h1.75l.14-.59-.05,0a4.59,4.59,0,0,1-.52,0h-1.32c.05-1.26.1-2.08.15-2.44l-.16-.14a5.07,5.07,0,0,1-1.09.51v2c-.26.13-.59.27-1,.43v.28a6.89,6.89,0,0,1,.74-.05"/><path class="cls-1" d="M244.11,95.55c.55,0,1.21,0,2,0v-.37a7,7,0,0,1-1.08-.12.24.24,0,0,1-.14-.09.34.34,0,0,1-.07-.16,2.64,2.64,0,0,1,0-.52c0-.78,0-1.32,0-1.61V92a1.92,1.92,0,0,1,.36-1.27,1.06,1.06,0,0,1,.85-.42.75.75,0,0,1,.49.15,1.11,1.11,0,0,1,.35.49h.3a14.32,14.32,0,0,1,.13-1.58l0-.09a1.33,1.33,0,0,0-.55-.12,1.39,1.39,0,0,0-.53.1,1.48,1.48,0,0,0-.45.28,2.6,2.6,0,0,0-.36.44c-.17.22-.35.45-.55.68,0-.56,0-1,0-1.24a.45.45,0,0,0,0-.11.17.17,0,0,0,0-.1.09.09,0,0,0-.07,0,.74.74,0,0,0-.18.07,7.25,7.25,0,0,1-2,.47v.37a4.11,4.11,0,0,1,.88,0,.25.25,0,0,1,.15.11,2,2,0,0,1,.05.47q0,.62,0,1.14v.79c0,.06,0,.68,0,1.87a1.35,1.35,0,0,1-.08.48.27.27,0,0,1-.09.12.3.3,0,0,1-.17.06l-.81,0v.37c.53,0,1.08,0,1.64,0"/><path class="cls-1" d="M248.88,86.5a.72.72,0,0,0-.23.53.68.68,0,0,0,.23.52.69.69,0,0,0,.53.22.7.7,0,0,0,.52-.22.67.67,0,0,0,.22-.52.74.74,0,0,0-.21-.53.71.71,0,0,0-.53-.22.69.69,0,0,0-.53.22m-.19,3.68a.23.23,0,0,1,.14.15,5,5,0,0,1,.07,1.18v1.17c0,1.21,0,1.85,0,1.91a1.22,1.22,0,0,1-.1.47.26.26,0,0,1-.12.11.42.42,0,0,1-.22,0h-.64v.37c.81,0,1.39,0,1.74,0s.94,0,1.62,0v-.37l-.74,0a.46.46,0,0,1-.17-.07.39.39,0,0,1-.08-.1,1.41,1.41,0,0,1-.08-.49c0-.09,0-.71,0-1.87V91.47q0-.75,0-2.16l-.14-.11a7.09,7.09,0,0,1-2.14.56v.37a4.13,4.13,0,0,1,.89.05"/><path class="cls-1" d="M252.5,90.35h.27v3c0,.36,0,.68,0,1a2.16,2.16,0,0,0,.15.69,1,1,0,0,0,.28.36,1.6,1.6,0,0,0,.38.23,1.7,1.7,0,0,0,.56.07,3.58,3.58,0,0,0,.49,0,1.81,1.81,0,0,0,.47-.12l.59-.51-.08-.26a2.55,2.55,0,0,1-.42.12l-.43,0a1.35,1.35,0,0,1-.5-.13.76.76,0,0,1-.24-.23,1.15,1.15,0,0,1-.13-.34,9.26,9.26,0,0,1,0-1.18l0-2.71h1.75l.14-.59,0,0a4.81,4.81,0,0,1-.52,0h-1.33c.06-1.26.11-2.08.15-2.44l-.15-.14a5.17,5.17,0,0,1-1.1.51v2a9.23,9.23,0,0,1-1,.43v.28a7.06,7.06,0,0,1,.74-.05"/><path class="cls-1" d="M257.24,86.5A.71.71,0,0,0,257,87a.67.67,0,0,0,.22.52.69.69,0,0,0,.53.22.73.73,0,0,0,.53-.22.7.7,0,0,0,.21-.52.74.74,0,0,0-.21-.53.71.71,0,0,0-.53-.22.69.69,0,0,0-.53.22m-.19,3.68a.23.23,0,0,1,.14.15,5,5,0,0,1,.07,1.18v1.17c0,1.21,0,1.85,0,1.91a1.22,1.22,0,0,1-.1.47.29.29,0,0,1-.11.11.49.49,0,0,1-.23,0h-.64v.37c.81,0,1.39,0,1.74,0s.94,0,1.62,0v-.37l-.74,0a.34.34,0,0,1-.16-.07.28.28,0,0,1-.09-.1,1.46,1.46,0,0,1-.07-.49c0-.09,0-.71,0-1.87V91.47q0-.75,0-2.16l-.14-.11a7,7,0,0,1-2.14.56v.37a4.13,4.13,0,0,1,.89.05"/><path class="cls-1" d="M261.5,92.07a5.43,5.43,0,0,0,.27,1.66,2.45,2.45,0,0,0,.8,1.23,1.84,1.84,0,0,0,1.13.39,1.63,1.63,0,0,0,1.3-.61,2.83,2.83,0,0,0,.52-1.88,4.78,4.78,0,0,0-.31-1.82,2.36,2.36,0,0,0-.79-1.09,1.94,1.94,0,0,0-1.07-.31,1.68,1.68,0,0,0-1.34.59,2.79,2.79,0,0,0-.51,1.84m-1.25.48a3.27,3.27,0,0,1,.95-2.42,3.31,3.31,0,0,1,2.42-.93,3.11,3.11,0,0,1,2.28.87,3,3,0,0,1,.87,2.25,3.53,3.53,0,0,1-.45,1.77,3.25,3.25,0,0,1-1.27,1.25,3.78,3.78,0,0,1-1.82.45,3,3,0,0,1-1.3-.25,2.68,2.68,0,0,1-.87-.65,3.36,3.36,0,0,1-.51-.8,4,4,0,0,1-.3-1.54"/><path class="cls-1" d="M267.38,95.6v-.37H268a.42.42,0,0,0,.22,0,.26.26,0,0,0,.12-.11,1.27,1.27,0,0,0,.1-.47c0-.06,0-.7,0-1.91v-.8c0-.35,0-.73,0-1.15a1.56,1.56,0,0,0-.07-.46.25.25,0,0,0-.15-.11,3.82,3.82,0,0,0-.86,0v-.37a7.25,7.25,0,0,0,1.95-.47.74.74,0,0,1,.18-.07.08.08,0,0,1,.07,0,.12.12,0,0,1,0,.09v.11q0,.23,0,1l1.23-1a3.13,3.13,0,0,1,1-.2,2.39,2.39,0,0,1,1,.22,1.73,1.73,0,0,1,.72.55,2,2,0,0,1,.33.84c0,.2,0,.76,0,1.67v1.18c0,.58,0,1,0,1.18a.57.57,0,0,0,.11.27.3.3,0,0,0,.21.1l.71,0v.37c-.42,0-.78,0-1.06,0s-.65,0-1.22,0c0-1.1.07-1.79.07-2.07V92.41a7.73,7.73,0,0,0-.07-1.36,1.24,1.24,0,0,0-.51-.72,1.69,1.69,0,0,0-1-.27,1.88,1.88,0,0,0-.91.22,1.53,1.53,0,0,0-.58.54,2.22,2.22,0,0,0-.18,1v.81c0,1.16,0,1.79,0,1.88a1.41,1.41,0,0,0,.08.49.35.35,0,0,0,.08.1.39.39,0,0,0,.17.07l.73,0v.37c-.54,0-1,0-1.47,0s-1,0-1.82,0"/><path class="cls-1" d="M164.76,77.5a11.91,11.91,0,0,1-1.66.49,11,11,0,0,1-2.15.22,6,6,0,0,1-2.72-.6,4.44,4.44,0,0,1-1.85-1.68,4.88,4.88,0,0,1-.65-2.55,4.59,4.59,0,0,1,1.64-3.69,5.05,5.05,0,0,1,1.4-.86,7.05,7.05,0,0,1,2.64-.43,8.64,8.64,0,0,1,1.55.17c.55.11,1.16.26,1.84.45-.06.22-.11.44-.15.65s-.08.66-.14,1.33h-.39l0-.75c0-.12,0-.21,0-.28a.77.77,0,0,0-.09-.27,1.58,1.58,0,0,0-.57-.43,7.39,7.39,0,0,0-1.13-.34,5.34,5.34,0,0,0-1.05-.08,4.23,4.23,0,0,0-2.19.53,3.46,3.46,0,0,0-1.41,1.54,5.24,5.24,0,0,0,.08,4.55,3.94,3.94,0,0,0,1.5,1.6,4.18,4.18,0,0,0,2.18.55,5.93,5.93,0,0,0,1.13-.11,4,4,0,0,0,.94-.32,7.75,7.75,0,0,0,0-.84v-.74a2,2,0,0,0-.06-.68c0-.07-.15-.12-.32-.15a10.92,10.92,0,0,0-1.2-.08v-.41l2.06,0c.4,0,.81,0,1.23,0l0,.31-.49.3a10.31,10.31,0,0,0-.08,1.31,9.91,9.91,0,0,0,.08,1.29"/><path class="cls-1" d="M166,78v-.36h.65a.42.42,0,0,0,.22,0,.28.28,0,0,0,.13-.11,1.43,1.43,0,0,0,.08-.47c0-.06,0-.69,0-1.9V72.35c0-.73,0-1.5,0-2.28a4.81,4.81,0,0,0-.07-.89.17.17,0,0,0-.11-.09,4.3,4.3,0,0,0-.92,0v-.37A7.12,7.12,0,0,0,168,68.2a.33.33,0,0,1,.14,0,.09.09,0,0,1,.07,0,.11.11,0,0,1,0,.08.72.72,0,0,1,0,.13v.22c0,.79,0,1.46-.05,2v4.47c0,1.15,0,1.77,0,1.86a1.56,1.56,0,0,0,.08.48.24.24,0,0,0,.09.11.84.84,0,0,0,.16.07l.75,0V78c-.6,0-1.13-.05-1.59-.05s-1,0-1.72.05"/><path class="cls-1" d="M171.29,74.49a5.48,5.48,0,0,0,.27,1.66,2.45,2.45,0,0,0,.8,1.23,1.82,1.82,0,0,0,1.13.39,1.68,1.68,0,0,0,1.3-.61,2.85,2.85,0,0,0,.52-1.88,4.84,4.84,0,0,0-.31-1.83,2.34,2.34,0,0,0-.79-1.08,1.94,1.94,0,0,0-1.07-.31,1.7,1.7,0,0,0-1.34.59,2.75,2.75,0,0,0-.51,1.84M170,75a3.26,3.26,0,0,1,1-2.41,3.33,3.33,0,0,1,2.43-.94,3,3,0,0,1,3.14,3.13,3.52,3.52,0,0,1-.45,1.76,3.17,3.17,0,0,1-1.28,1.26,3.68,3.68,0,0,1-1.81.45,2.84,2.84,0,0,1-1.3-.26,2.66,2.66,0,0,1-.87-.64,2.92,2.92,0,0,1-.5-.81A3.78,3.78,0,0,1,170,75"/><path class="cls-1" d="M179.08,73.74v2.5a1.19,1.19,0,0,0,0,.42.57.57,0,0,0,.22.25,2.47,2.47,0,0,0,.65.38,2.34,2.34,0,0,0,.79.13,1.71,1.71,0,0,0,1.5-.74,3.16,3.16,0,0,0,.53-1.85,3,3,0,0,0-.26-1.3,1.67,1.67,0,0,0-.68-.79,1.83,1.83,0,0,0-1-.27,1.87,1.87,0,0,0-1.14.37,1.69,1.69,0,0,0-.67.9m-1.2,4.3c0-.56.06-.91.07-1.05,0-1,0-1.52,0-1.7V72.35q0-1.11,0-2.28a4.81,4.81,0,0,0-.07-.89.19.19,0,0,0-.11-.09,4.38,4.38,0,0,0-.92,0v-.37a7.21,7.21,0,0,0,2.07-.47.3.3,0,0,1,.13,0s.06,0,.07,0a.11.11,0,0,1,0,.08.72.72,0,0,1,0,.13v.22c0,.79,0,1.45,0,2l0,1V73l.92-.9a2.11,2.11,0,0,1,.59-.3,2.62,2.62,0,0,1,.88-.15,2.47,2.47,0,0,1,1.31.35,2.25,2.25,0,0,1,.87,1,3.19,3.19,0,0,1,.31,1.39,3.49,3.49,0,0,1-.18,1.11,3.63,3.63,0,0,1-.44.93,1.74,1.74,0,0,1-.35.43l-1,.7a4.38,4.38,0,0,1-.93.56,2.55,2.55,0,0,1-.85.12,2.73,2.73,0,0,1-.83-.12,3.43,3.43,0,0,1-.81-.41l-.51.51Z"/><path class="cls-1" d="M189,74.48a12.75,12.75,0,0,0-1.47.33,2.79,2.79,0,0,0-.87.38.85.85,0,0,0-.26.34,1.54,1.54,0,0,0-.17.75,1.06,1.06,0,0,0,.27.77,1,1,0,0,0,.75.28,1.63,1.63,0,0,0,.88-.26,3.48,3.48,0,0,0,.87-.76Zm-3.06-1-.35-.09V72.5a6.77,6.77,0,0,1,1.39-.75,2.91,2.91,0,0,1,.92-.14,2.66,2.66,0,0,1,1.28.29,1.8,1.8,0,0,1,.77.82,2.55,2.55,0,0,1,.18,1l0,1.22v2a1.7,1.7,0,0,0,0,.47.29.29,0,0,0,.13.14.59.59,0,0,0,.27.06l.43,0V78c-.36,0-.68-.05-1-.05s-.62,0-1.06.05l0-1.16c-.91.69-1.44,1.07-1.61,1.16a1.48,1.48,0,0,1-.64.13,1.73,1.73,0,0,1-1.25-.44,1.48,1.48,0,0,1-.45-1.14,2.24,2.24,0,0,1,.15-.84,1.82,1.82,0,0,1,.38-.6,1.48,1.48,0,0,1,.45-.33,6.24,6.24,0,0,1,1.25-.39,15.18,15.18,0,0,1,1.72-.31,2.55,2.55,0,0,0-.15-1,1.31,1.31,0,0,0-.54-.58,1.83,1.83,0,0,0-.93-.23,2.08,2.08,0,0,0-.69.11.94.94,0,0,0-.36.18l-.12.24c-.12.26-.22.47-.27.62"/><path class="cls-1" d="M191.58,78v-.36h.64a.44.44,0,0,0,.23,0,.22.22,0,0,0,.12-.11,1.17,1.17,0,0,0,.09-.47c0-.06,0-.69,0-1.9V72.35c0-.73,0-1.5,0-2.28a4.81,4.81,0,0,0-.07-.89.19.19,0,0,0-.11-.09,4.38,4.38,0,0,0-.92,0v-.37a7.21,7.21,0,0,0,2.07-.47.33.33,0,0,1,.14,0,.09.09,0,0,1,.07,0,.19.19,0,0,1,0,.08.72.72,0,0,1,0,.13v.22c0,.79,0,1.46,0,2v4.47q0,1.73,0,1.86a1.35,1.35,0,0,0,.07.48.24.24,0,0,0,.09.11.62.62,0,0,0,.16.07l.75,0V78c-.6,0-1.13-.05-1.59-.05s-1,0-1.72.05"/><path class="cls-1" d="M201.37,74.36h3.35l-1.65-4ZM198.3,78V77.6a3.25,3.25,0,0,0,.65,0,.56.56,0,0,0,.24-.13,2.36,2.36,0,0,0,.32-.54c.08-.16.36-.78.86-1.86L202,71.27c.18-.41.57-1.33,1.17-2.74h.41l2.84,6.65c.46,1.08.77,1.76.92,2a.72.72,0,0,0,.28.31,2,2,0,0,0,.67.08V78L206.86,78l-2.15.05V77.6a7.86,7.86,0,0,0,.9,0,.35.35,0,0,0,.22-.1.2.2,0,0,0,0-.15,1.13,1.13,0,0,0-.09-.38l-.81-2h-3.82l-.71,1.7a1.87,1.87,0,0,0-.19.67.25.25,0,0,0,.05.15.42.42,0,0,0,.23.12,6.33,6.33,0,0,0,.86.06V78c-.75,0-1.31-.05-1.68-.05s-.91,0-1.42.05"/><path class="cls-1" d="M210.67,78c.46,0,1,0,1.59.05v-.36l-.75,0a.62.62,0,0,1-.16-.07.23.23,0,0,1-.08-.11,1.12,1.12,0,0,1-.08-.48c0-.09,0-.71,0-1.86V70.64c0-.56,0-1.23.05-2V68.4a.72.72,0,0,0,0-.13.11.11,0,0,0,0-.08.1.1,0,0,0-.08,0,.34.34,0,0,0-.13,0,7,7,0,0,1-2.07.47V69a4.23,4.23,0,0,1,.92,0,.17.17,0,0,1,.11.09,4,4,0,0,1,.07.89c0,.78,0,1.55,0,2.28V75.1c0,1.22,0,1.85,0,1.91a1,1,0,0,1-.08.47.28.28,0,0,1-.13.11.42.42,0,0,1-.22,0H209V78c.71,0,1.28-.05,1.71-.05"/><path class="cls-1" d="M212.9,78v-.36h.64a.46.46,0,0,0,.23,0,.32.32,0,0,0,.12-.11A1.17,1.17,0,0,0,214,77c0-.06,0-.69,0-1.9V72.35c0-.73,0-1.5,0-2.28a6.1,6.1,0,0,0-.07-.89.23.23,0,0,0-.11-.09,4.36,4.36,0,0,0-.93,0v-.37A7.21,7.21,0,0,0,215,68.2a.27.27,0,0,1,.13,0,.09.09,0,0,1,.07,0,.11.11,0,0,1,0,.08.37.37,0,0,1,0,.13v.22c0,.79,0,1.46,0,2v4.47c0,1.15,0,1.77,0,1.86a1.12,1.12,0,0,0,.08.48.31.31,0,0,0,.08.11.73.73,0,0,0,.17.07l.75,0V78c-.61,0-1.14-.05-1.59-.05s-1,0-1.72.05"/><path class="cls-1" d="M218.42,68.7a.72.72,0,0,1,.53.21A.76.76,0,0,1,219,70a.74.74,0,0,1-.53.21.72.72,0,0,1-.52-.21.76.76,0,0,1,0-1.07.72.72,0,0,1,.52-.21m-1.6,3.85v-.37a6.66,6.66,0,0,0,2.13-.57l.15.11c0,1,0,1.67,0,2.17V75.1c0,1.15,0,1.78,0,1.87a1.63,1.63,0,0,0,.07.48l.09.11a.84.84,0,0,0,.16.07l.75,0V78c-.68,0-1.22-.05-1.62-.05s-.94,0-1.74.05v-.36h.64a.45.45,0,0,0,.22,0,.32.32,0,0,0,.12-.11,1.34,1.34,0,0,0,.1-.48s0-.69,0-1.9V73.92a5.11,5.11,0,0,0-.07-1.18.27.27,0,0,0-.14-.14,3.51,3.51,0,0,0-.89,0"/><path class="cls-1" d="M225,74.48a13.8,13.8,0,0,0-1.47.33,2.72,2.72,0,0,0-.86.38,1,1,0,0,0-.27.34,1.66,1.66,0,0,0-.17.75,1,1,0,0,0,1,1,1.63,1.63,0,0,0,.88-.26,3.29,3.29,0,0,0,.86-.76Zm-3.06-1-.35-.09c0-.1,0-.24,0-.42s0-.33,0-.44a7.33,7.33,0,0,1,1.39-.75,3,3,0,0,1,.93-.14,2.66,2.66,0,0,1,1.28.29,1.8,1.8,0,0,1,.77.82,2.57,2.57,0,0,1,.17,1l0,1.22v2a1.38,1.38,0,0,0,.05.47.33.33,0,0,0,.12.14.69.69,0,0,0,.28.06l.43,0V78c-.36,0-.68-.05-.95-.05s-.62,0-1.06.05l0-1.16A19.09,19.09,0,0,1,223.34,78a1.47,1.47,0,0,1-.63.13,1.74,1.74,0,0,1-1.26-.44,1.48,1.48,0,0,1-.44-1.14,2.24,2.24,0,0,1,.15-.84,1.82,1.82,0,0,1,.38-.6,1.45,1.45,0,0,1,.44-.33,6.39,6.39,0,0,1,1.26-.39,15,15,0,0,1,1.71-.31,2.37,2.37,0,0,0-.15-1,1.31,1.31,0,0,0-.54-.58,1.78,1.78,0,0,0-.93-.23,2.08,2.08,0,0,0-.69.11,1.14,1.14,0,0,0-.36.18l-.12.24c-.12.26-.21.47-.27.62"/><path class="cls-1" d="M229.24,78c.44,0,.93,0,1.47.05v-.36l-.74,0a.49.49,0,0,1-.16-.07.31.31,0,0,1-.09-.11,1.58,1.58,0,0,1-.08-.49c0-.09,0-.72,0-1.87v-.81a2.17,2.17,0,0,1,.18-1,1.33,1.33,0,0,1,.58-.54,1.83,1.83,0,0,1,.9-.23,1.65,1.65,0,0,1,1,.27,1.23,1.23,0,0,1,.51.72,7.53,7.53,0,0,1,.08,1.37v1.11c0,.29,0,1-.07,2.07L234,78c.28,0,.64,0,1.07.05v-.36l-.71,0a.41.41,0,0,1-.22-.1.53.53,0,0,1-.1-.28c0-.2,0-.6,0-1.18V74.9c0-.92,0-1.47,0-1.68a1.88,1.88,0,0,0-.33-.83,1.59,1.59,0,0,0-.72-.55,2.37,2.37,0,0,0-1-.23,3.07,3.07,0,0,0-1,.2l-1.23,1.06c0-.51,0-.84,0-1v-.11a.15.15,0,0,0,0-.1.1.1,0,0,0-.08,0,.49.49,0,0,0-.17.06,6.92,6.92,0,0,1-2,.48v.37a3.94,3.94,0,0,1,.87,0,.25.25,0,0,1,.15.11,1.37,1.37,0,0,1,.06.46c0,.41,0,.79,0,1.15v.79c0,1.22,0,1.86,0,1.91a1.19,1.19,0,0,1-.09.48.43.43,0,0,1-.12.11.45.45,0,0,1-.22,0h-.65V78c.85,0,1.45-.05,1.83-.05"/><path class="cls-1" d="M240.87,77.25l-.27.44a3.66,3.66,0,0,1-1.91.47,3,3,0,0,1-2.21-.83,3.16,3.16,0,0,1-.81-2.29,3.62,3.62,0,0,1,.22-1.34,2.45,2.45,0,0,1,.54-.89,4.2,4.2,0,0,1,.83-.56,8,8,0,0,1,.85-.44,2.69,2.69,0,0,1,1.07-.2,4.44,4.44,0,0,1,1.08.13,2.15,2.15,0,0,1,.61.27c-.06.34-.1.59-.12.77s-.05.49-.08.94h-.37a5.94,5.94,0,0,0-.08-.79.41.41,0,0,0-.12-.18,2.31,2.31,0,0,0-.61-.31,2.38,2.38,0,0,0-.81-.14,2,2,0,0,0-1,.23,1.5,1.5,0,0,0-.63.72,2.93,2.93,0,0,0-.22,1.22,4,4,0,0,0,.31,1.61,2.21,2.21,0,0,0,.86,1.06,2.27,2.27,0,0,0,1.21.33,2.44,2.44,0,0,0,.66-.08,4.89,4.89,0,0,0,.81-.31Z"/><path class="cls-1" d="M242.73,74.29l.71,0,1.38,0q.88,0,1.17,0c0-.11,0-.19,0-.25a2.32,2.32,0,0,0-.43-1.54,1.45,1.45,0,0,0-1.15-.49,1.56,1.56,0,0,0-1.22.53,2.61,2.61,0,0,0-.47,1.7M247,77l-.21.47a7.16,7.16,0,0,1-.67.39,5.35,5.35,0,0,1-.71.24,3.89,3.89,0,0,1-.85.09A3.43,3.43,0,0,1,243,77.8a2.57,2.57,0,0,1-1.1-1.09,3.41,3.41,0,0,1-.4-1.69,4.19,4.19,0,0,1,.21-1.37,2.48,2.48,0,0,1,.48-.9,3.36,3.36,0,0,1,.59-.49,4.84,4.84,0,0,1,.8-.43,3,3,0,0,1,1.14-.22A2.75,2.75,0,0,1,246,72a2,2,0,0,1,.87.92,3,3,0,0,1,.29,1.31,3.91,3.91,0,0,1,0,.45,8,8,0,0,1-.86.12c-.48,0-1,0-1.44,0h-2.14a3.34,3.34,0,0,0,.33,1.53,1.93,1.93,0,0,0,.88.86,2.44,2.44,0,0,0,1.15.28,2.54,2.54,0,0,0,.81-.13,5.42,5.42,0,0,0,1-.48Z"/><path class="cls-1" d="M252.44,72.79v2.32c0,1.21,0,1.84,0,1.9a1.17,1.17,0,0,1-.09.47.26.26,0,0,1-.12.11.42.42,0,0,1-.22,0h-.64V78L253,78l1.89.05v-.36a7,7,0,0,1-1.09-.12.32.32,0,0,1-.15-.09.3.3,0,0,1-.06-.16,2.37,2.37,0,0,1,0-.52c0-.77,0-1.31,0-1.6V72.79l.84,0,.85,0,.13-.67-.07,0c-.33,0-.68,0-1,0h-.71V70.75a3.78,3.78,0,0,1,.11-1.12.87.87,0,0,1,.33-.42,1,1,0,0,1,.59-.15,1.32,1.32,0,0,1,.47.08,1.61,1.61,0,0,1,.41.25l.16,0,0-1.1a1.67,1.67,0,0,0-.53-.08,1.31,1.31,0,0,0-.64.14,2.92,2.92,0,0,0-.63.52,10.6,10.6,0,0,0-1,1,2.22,2.22,0,0,0-.3.64,4.46,4.46,0,0,0-.11,1.23v.4a8.1,8.1,0,0,1-.93.45v.26Z"/><path class="cls-1" d="M257.22,74.49a5.48,5.48,0,0,0,.27,1.66,2.45,2.45,0,0,0,.8,1.23,1.84,1.84,0,0,0,1.13.39,1.68,1.68,0,0,0,1.3-.61,2.85,2.85,0,0,0,.52-1.88,4.84,4.84,0,0,0-.31-1.83,2.34,2.34,0,0,0-.79-1.08,1.94,1.94,0,0,0-1.07-.31,1.7,1.7,0,0,0-1.34.59,2.75,2.75,0,0,0-.51,1.84M256,75a3.26,3.26,0,0,1,1-2.41,3.33,3.33,0,0,1,2.43-.94,3,3,0,0,1,3.14,3.13A3.52,3.52,0,0,1,262,76.5a3.17,3.17,0,0,1-1.28,1.26,3.68,3.68,0,0,1-1.81.45,2.84,2.84,0,0,1-1.3-.26,2.66,2.66,0,0,1-.87-.64,2.92,2.92,0,0,1-.5-.81A3.78,3.78,0,0,1,256,75"/><path class="cls-1" d="M263.24,78v-.36l.82,0a.41.41,0,0,0,.16-.06.34.34,0,0,0,.1-.13,1.56,1.56,0,0,0,.08-.48c0-1.18,0-1.8,0-1.86V74.3c0-.36,0-.74,0-1.15a1.73,1.73,0,0,0-.06-.46.25.25,0,0,0-.15-.11,4,4,0,0,0-.87,0v-.37a6.83,6.83,0,0,0,1.95-.48l.18-.06a.08.08,0,0,1,.07,0,.15.15,0,0,1,0,.1.45.45,0,0,1,0,.11c0,.26,0,.68,0,1.24a8.3,8.3,0,0,0,.55-.69c.17-.22.29-.37.36-.44a1.68,1.68,0,0,1,.45-.27,1.41,1.41,0,0,1,.54-.11,1.5,1.5,0,0,1,.54.12l0,.1c-.07.6-.11,1.12-.12,1.57h-.3a1.24,1.24,0,0,0-.35-.48.8.8,0,0,0-.5-.15,1.06,1.06,0,0,0-.85.42,1.92,1.92,0,0,0-.36,1.27v.69c0,.29,0,.83,0,1.6a2.77,2.77,0,0,0,0,.53.4.4,0,0,0,.07.16.38.38,0,0,0,.14.09,7.37,7.37,0,0,0,1.08.12V78c-.77,0-1.44-.05-2-.05s-1.12,0-1.65.05"/><path class="cls-1" d="M159.51,95.18v.42l-1.83,0-2,0v-.42a4.49,4.49,0,0,0,.94-.07.47.47,0,0,0,.24-.15,1.78,1.78,0,0,0,.09-.64c0-.1,0-.73,0-1.89V89.37c0-.6,0-1.19,0-1.76a2.13,2.13,0,0,0-.09-.75.5.5,0,0,0-.24-.17,4.49,4.49,0,0,0-.94-.07V86.2c.83,0,1.47.06,1.93.06s1.07,0,1.92-.06v.42a4.53,4.53,0,0,0-.95.07.41.41,0,0,0-.23.16,1.9,1.9,0,0,0-.1.64c0,.09,0,.71,0,1.88v3.06c0,.6,0,1.19,0,1.76a2.06,2.06,0,0,0,.09.74.37.37,0,0,0,.24.18,4.53,4.53,0,0,0,.95.07"/><path class="cls-1" d="M160.15,95.6v-.37h.64a.52.52,0,0,0,.23,0,.23.23,0,0,0,.11-.11,1.15,1.15,0,0,0,.1-.48s0-.7,0-1.92v-.79c0-.36,0-.74,0-1.15a1.37,1.37,0,0,0-.07-.48.27.27,0,0,0-.14-.11,5.47,5.47,0,0,0-.87,0v-.37a7.66,7.66,0,0,0,1.95-.47.46.46,0,0,1,.18-.07.08.08,0,0,1,.07,0,.15.15,0,0,1,0,.1.45.45,0,0,1,0,.11c0,.21,0,.53,0,1l.86-.79a1.22,1.22,0,0,1,.2-.17,1.86,1.86,0,0,1,.43-.16,2.35,2.35,0,0,1,.6-.07,2,2,0,0,1,1.12.31,2,2,0,0,1,.76.93l.73-.69a3,3,0,0,1,.33-.28,2.18,2.18,0,0,1,.49-.19,2.7,2.7,0,0,1,.62-.08,2,2,0,0,1,1.26.4,1.89,1.89,0,0,1,.65.92A7.24,7.24,0,0,1,170.5,92V93.6c0,.54,0,.86,0,1a1.7,1.7,0,0,0,.08.49.41.41,0,0,0,.09.1.4.4,0,0,0,.16.07l.75,0v.37l-1.14,0-1.16,0,0-1.83,0-.72v-.56a6.26,6.26,0,0,0-.12-1.52,1.09,1.09,0,0,0-.47-.66,1.41,1.41,0,0,0-.84-.25,1.64,1.64,0,0,0-1,.31,1.22,1.22,0,0,0-.42.58,5.17,5.17,0,0,0-.1,1.29v1.37c0,.54,0,.85,0,.94a1.64,1.64,0,0,0,.08.49l.08.1a.46.46,0,0,0,.17.07l.75,0v.37c-.65,0-1.18,0-1.57,0l-1.74,0v-.37h.65a.45.45,0,0,0,.22,0,.32.32,0,0,0,.12-.11,1.09,1.09,0,0,0,.09-.47s0-.69,0-1.9v-.52a4.22,4.22,0,0,0-.13-1.25,1.27,1.27,0,0,0-.46-.63,1.32,1.32,0,0,0-.8-.23,1.62,1.62,0,0,0-.75.17,1.31,1.31,0,0,0-.54.42,1.21,1.21,0,0,0-.21.53,7.14,7.14,0,0,0-.07,1.11v.4c0,1.15,0,1.77,0,1.86a1.64,1.64,0,0,0,.08.49l.08.1a.54.54,0,0,0,.17.07l.75,0v.37c-.62,0-1.14,0-1.57,0s-1,0-1.74,0"/><path class="cls-1" d="M174.34,94.26a2.66,2.66,0,0,0,.8.57,2.27,2.27,0,0,0,1,.2,2.05,2.05,0,0,0,1.09-.3,2.12,2.12,0,0,0,.79-.94,3.56,3.56,0,0,0,.28-1.39,2.8,2.8,0,0,0-.27-1.27,1.91,1.91,0,0,0-.78-.81,2.24,2.24,0,0,0-1-.26,1.92,1.92,0,0,0-.74.15,2.26,2.26,0,0,0-.67.43,1.65,1.65,0,0,0-.4.55,1.79,1.79,0,0,0,0,.48Zm-2.28-4.18v-.37l.51,0a7.19,7.19,0,0,0,.86-.19,3.63,3.63,0,0,0,.71-.26.41.41,0,0,1,.12,0,.12.12,0,0,1,.08,0,.16.16,0,0,1,0,.11,1.26,1.26,0,0,1,0,.16c0,.13,0,.25,0,.36v.72a10,10,0,0,1,1.4-1.18,2.56,2.56,0,0,1,1.09-.18,2.72,2.72,0,0,1,1.45.38,2.26,2.26,0,0,1,.89,1,3.15,3.15,0,0,1,.27,1.3,2.9,2.9,0,0,1-.1.79,3.85,3.85,0,0,1-.24.7,5,5,0,0,1-.33.61,2.28,2.28,0,0,1-.35.42c0,.06-.22.19-.47.4a5.62,5.62,0,0,1-.83.54,3.73,3.73,0,0,1-.62.28,2.63,2.63,0,0,1-.8.12,2.25,2.25,0,0,1-.64-.08,3.24,3.24,0,0,1-.72-.27v1c0,1.11,0,1.73,0,1.84a1,1,0,0,0,.08.47.2.2,0,0,0,.08.12.47.47,0,0,0,.17.06,7.8,7.8,0,0,0,.79,0v.37c-.55,0-1.28,0-2.19,0a11.11,11.11,0,0,0-1.17,0V99h.65a.55.55,0,0,0,.22,0,.43.43,0,0,0,.12-.11,1.19,1.19,0,0,0,.09-.48s0-.69,0-1.91V94c0-.77,0-1.56,0-2.37a13.13,13.13,0,0,0,0-1.33.31.31,0,0,0-.09-.16.42.42,0,0,0-.18-.08Z"/><path class="cls-1" d="M180.3,95.6v-.37l.81,0a.38.38,0,0,0,.18-.06.48.48,0,0,0,.09-.13,1.85,1.85,0,0,0,.08-.47c0-1.19,0-1.81,0-1.86v-.8c0-.35,0-.73,0-1.15a1.73,1.73,0,0,0-.06-.46.25.25,0,0,0-.15-.11,4,4,0,0,0-.87,0v-.37a7.25,7.25,0,0,0,2-.47.74.74,0,0,1,.18-.07.08.08,0,0,1,.07,0,.12.12,0,0,1,0,.09v.11c0,.26,0,.68,0,1.24l.54-.68a4.23,4.23,0,0,1,.36-.44,1.62,1.62,0,0,1,.45-.28,1.39,1.39,0,0,1,.53-.1,1.37,1.37,0,0,1,.55.12l0,.09a14.08,14.08,0,0,0-.12,1.58h-.3a1.29,1.29,0,0,0-.35-.49.8.8,0,0,0-.5-.15,1.07,1.07,0,0,0-.85.42,1.92,1.92,0,0,0-.35,1.27v.69c0,.29,0,.83,0,1.61a2.64,2.64,0,0,0,0,.52.34.34,0,0,0,.07.16.27.27,0,0,0,.15.09,6.79,6.79,0,0,0,1.07.12v.37c-.77,0-1.44,0-2,0s-1.12,0-1.65,0"/><path class="cls-1" d="M186.79,92.07a5.17,5.17,0,0,0,.28,1.66,2.38,2.38,0,0,0,.79,1.23,1.84,1.84,0,0,0,1.13.39,1.65,1.65,0,0,0,1.3-.61,2.83,2.83,0,0,0,.52-1.88A4.78,4.78,0,0,0,190.5,91a2.36,2.36,0,0,0-.79-1.09,1.94,1.94,0,0,0-1.07-.31,1.64,1.64,0,0,0-1.33.59,2.73,2.73,0,0,0-.52,1.84m-1.25.48a3.22,3.22,0,0,1,3.37-3.35,3.11,3.11,0,0,1,2.28.87,3,3,0,0,1,.87,2.25,3.53,3.53,0,0,1-.45,1.77,3.21,3.21,0,0,1-1.28,1.25,3.68,3.68,0,0,1-1.81.45,3,3,0,0,1-1.3-.25,2.68,2.68,0,0,1-.87-.65,3,3,0,0,1-.5-.8,3.82,3.82,0,0,1-.31-1.54"/><path class="cls-1" d="M195.88,95.67c-.17-.45-.29-.76-.36-.91L195,93.48l-1.36-3.18a1.67,1.67,0,0,0-.22-.4.41.41,0,0,0-.21-.12,2.68,2.68,0,0,0-.49,0v-.37c.73,0,1.27,0,1.61,0s.88,0,1.52,0v.37a2.56,2.56,0,0,0-.84.09.21.21,0,0,0-.13.2,3,3,0,0,0,.27.86l.81,2,.19.45c.21.53.37.88.45,1.06l.66-1.51q.06-.14.6-1.5a11.3,11.3,0,0,0,.42-1.21.88.88,0,0,0,0-.21.18.18,0,0,0-.09-.16,2.39,2.39,0,0,0-.85-.1v-.37l1.27,0,1.27,0v.37a1.4,1.4,0,0,0-.55.09.82.82,0,0,0-.27.32q-.09.16-.72,1.44L197.71,93c-.11.24-.49,1.15-1.14,2.71Z"/><path class="cls-1" d="M201.74,91.87c.13,0,.36,0,.71,0l1.37,0c.6,0,1,0,1.18,0v-.25a2.34,2.34,0,0,0-.42-1.54,1.45,1.45,0,0,0-1.15-.49,1.56,1.56,0,0,0-1.22.53,2.63,2.63,0,0,0-.47,1.7M206,94.55l-.21.48a6.49,6.49,0,0,1-.67.38,5.35,5.35,0,0,1-.71.24,3.89,3.89,0,0,1-.85.09,3.43,3.43,0,0,1-1.58-.36,2.55,2.55,0,0,1-1.1-1.08,3.55,3.55,0,0,1-.4-1.69,4.25,4.25,0,0,1,.21-1.38,2.67,2.67,0,0,1,.48-.9,3,3,0,0,1,.59-.48,4,4,0,0,1,.81-.43,2.78,2.78,0,0,1,1.13-.22,2.64,2.64,0,0,1,1.34.34,2,2,0,0,1,.88.92,3,3,0,0,1,.27,1.31,3.87,3.87,0,0,1,0,.45,6.14,6.14,0,0,1-.86.11c-.48,0-1,0-1.44,0h-2.14a3.35,3.35,0,0,0,.33,1.54,2,2,0,0,0,.87.86,2.51,2.51,0,0,0,1.16.28,2.54,2.54,0,0,0,.81-.13,5.57,5.57,0,0,0,1-.49Z"/><path class="cls-1" d="M212.25,90.74a3,3,0,0,0-.95-.72,2.26,2.26,0,0,0-1-.23,2,2,0,0,0-1,.27,1.87,1.87,0,0,0-.7.85,3.25,3.25,0,0,0-.25,1.35,2.75,2.75,0,0,0,.61,1.9,1.91,1.91,0,0,0,1.47.68,1.72,1.72,0,0,0,.8-.19,1.79,1.79,0,0,0,.63-.54,1.84,1.84,0,0,0,.34-.8,12.47,12.47,0,0,0,.05-1.43Zm-1.1-4.17v-.36a12,12,0,0,0,1.24-.2,8.36,8.36,0,0,0,1-.27l.08.06c0,.37,0,1.1,0,2.18l0,1.06v4.15c0,.45,0,.84,0,1.18a1.58,1.58,0,0,0,.08.58.37.37,0,0,0,.2.16,3.82,3.82,0,0,0,.82.12v.37l-1.13,0-1.15,0c0-.31,0-.72,0-1.24-.18.12-.41.32-.71.57s-.54.47-.71.63a3.83,3.83,0,0,1-.94.13,2.68,2.68,0,0,1-1.39-.37,2.46,2.46,0,0,1-1-1.08,3.54,3.54,0,0,1-.34-1.59,3.73,3.73,0,0,1,.21-1.25,2.38,2.38,0,0,1,.53-.92,5,5,0,0,1,.82-.57,8.91,8.91,0,0,1,1-.54,2.08,2.08,0,0,1,.87-.17,3.25,3.25,0,0,1,1.6.41V87.87a4,4,0,0,0-.08-1.12.16.16,0,0,0-.1-.11,3.93,3.93,0,0,0-.92-.07"/><path class="cls-1" d="M218.67,95.6v-.42a2.48,2.48,0,0,0,.92-.11.21.21,0,0,0,.14-.12,2.67,2.67,0,0,0,.09-.7q0-.87,0-1.5V87.36a.85.85,0,0,0,0-.28,1.05,1.05,0,0,0-.24-.29.57.57,0,0,0-.27-.13,6,6,0,0,0-.69,0v-.41l1.43.05c.34,0,.67,0,1-.05l.82,1.08L223.23,89l2,2.4,1.53,1.81c.25.28.45.51.62.68V89c0-.43,0-.94,0-1.52a2.51,2.51,0,0,0-.09-.67.35.35,0,0,0-.14-.13,3.27,3.27,0,0,0-.93-.1v-.41c.53,0,1.06.05,1.59.05s1,0,1.38-.05v.41a3.13,3.13,0,0,0-.92.1.26.26,0,0,0-.14.13,2.28,2.28,0,0,0-.09.7c0,.58,0,1.08,0,1.49v3.18q0,1,0,3.6l-.69-.2-.16,0-.07,0a2.73,2.73,0,0,1-.25-.27c-.37-.42-.64-.74-.81-1l-.86-1.09-4.72-5.66v5.14c0,.43,0,1,0,1.54a3.48,3.48,0,0,0,.08.69.32.32,0,0,0,.15.13,2.9,2.9,0,0,0,.92.1v.42c-.38,0-.81,0-1.28,0s-1.06,0-1.66,0"/><path class="cls-1" d="M237.38,95.23v.37c-.58,0-1,0-1.31,0s-.65,0-1,0c0-.36,0-.76,0-1.21a9.62,9.62,0,0,0-.94.87.88.88,0,0,1-.24.18,2.42,2.42,0,0,1-.56.24,3.37,3.37,0,0,1-.68.06,2.56,2.56,0,0,1-.89-.14,1.56,1.56,0,0,1-.6-.45,1.47,1.47,0,0,1-.3-.57,2.9,2.9,0,0,1-.11-.84c0-.15,0-.3,0-.44s0-.27,0-.41V91.75q0-.16,0-.87a2.51,2.51,0,0,0-.06-.57.23.23,0,0,0-.08-.11.75.75,0,0,0-.36-.07h-.58v-.37a5.9,5.9,0,0,0,2.06-.5.29.29,0,0,1,.17-.06.09.09,0,0,1,.07,0,.15.15,0,0,1,0,.1v.13c0,.14,0,.41,0,.81,0,.74,0,1.23,0,1.48V93a4.16,4.16,0,0,0,.11,1.13.93.93,0,0,0,.42.52,1.46,1.46,0,0,0,.78.2,2,2,0,0,0,.62-.11,1.77,1.77,0,0,0,.56-.3,2.28,2.28,0,0,0,.38-.42,2.66,2.66,0,0,0,.19-.3.91.91,0,0,0,0-.3c0-.39,0-.77,0-1.16v-.55q0-.18,0-.87a2,2,0,0,0-.06-.57.23.23,0,0,0-.08-.11.75.75,0,0,0-.36-.07H234v-.37a6,6,0,0,0,2.07-.5.31.31,0,0,1,.17-.06.11.11,0,0,1,.08,0,.15.15,0,0,1,0,.1.62.62,0,0,1,0,.13c0,.15,0,.43,0,.85,0,.72,0,1.21,0,1.46v.91l0,.93c0,.53,0,.85,0,.94a1.46,1.46,0,0,0,.07.49.41.41,0,0,0,.09.1.4.4,0,0,0,.16.07l.73,0"/><path class="cls-1" d="M238.79,90.35h.27v2.76c0,.09,0,.16,0,.24,0,.36,0,.68,0,1a1.73,1.73,0,0,0,.15.69,1,1,0,0,0,.28.36,1.76,1.76,0,0,0,.37.23,1.74,1.74,0,0,0,.56.07,3.73,3.73,0,0,0,.5,0,1.74,1.74,0,0,0,.46-.12L242,95l-.08-.26a2.86,2.86,0,0,1-.42.12l-.44,0a1.41,1.41,0,0,1-.5-.13.76.76,0,0,1-.24-.23.92.92,0,0,1-.12-.34,9.26,9.26,0,0,1,0-1.18l0-2.71h1.75l.14-.59-.05,0a4.59,4.59,0,0,1-.52,0h-1.32c.05-1.26.1-2.08.15-2.44l-.16-.14a5.07,5.07,0,0,1-1.09.51v2c-.26.13-.59.27-1,.43v.28a6.89,6.89,0,0,1,.74-.05"/><path class="cls-1" d="M244.11,95.55c.55,0,1.21,0,2,0v-.37a7,7,0,0,1-1.08-.12.24.24,0,0,1-.14-.09.34.34,0,0,1-.07-.16,2.64,2.64,0,0,1,0-.52c0-.78,0-1.32,0-1.61V92a1.92,1.92,0,0,1,.36-1.27,1.06,1.06,0,0,1,.85-.42.75.75,0,0,1,.49.15,1.11,1.11,0,0,1,.35.49h.3a14.32,14.32,0,0,1,.13-1.58l0-.09a1.33,1.33,0,0,0-.55-.12,1.39,1.39,0,0,0-.53.1,1.48,1.48,0,0,0-.45.28,2.6,2.6,0,0,0-.36.44c-.17.22-.35.45-.55.68,0-.56,0-1,0-1.24a.45.45,0,0,0,0-.11.17.17,0,0,0,0-.1.09.09,0,0,0-.07,0,.74.74,0,0,0-.18.07,7.25,7.25,0,0,1-2,.47v.37a4.11,4.11,0,0,1,.88,0,.25.25,0,0,1,.15.11,2,2,0,0,1,.05.47q0,.62,0,1.14v.79c0,.06,0,.68,0,1.87a1.35,1.35,0,0,1-.08.48.27.27,0,0,1-.09.12.3.3,0,0,1-.17.06l-.81,0v.37c.53,0,1.08,0,1.64,0"/><path class="cls-1" d="M248.88,86.5a.72.72,0,0,0-.23.53.68.68,0,0,0,.23.52.69.69,0,0,0,.53.22.7.7,0,0,0,.52-.22.67.67,0,0,0,.22-.52.74.74,0,0,0-.21-.53.71.71,0,0,0-.53-.22.69.69,0,0,0-.53.22m-.19,3.68a.23.23,0,0,1,.14.15,5,5,0,0,1,.07,1.18v1.17c0,1.21,0,1.85,0,1.91a1.22,1.22,0,0,1-.1.47.26.26,0,0,1-.12.11.42.42,0,0,1-.22,0h-.64v.37c.81,0,1.39,0,1.74,0s.94,0,1.62,0v-.37l-.74,0a.46.46,0,0,1-.17-.07.39.39,0,0,1-.08-.1,1.41,1.41,0,0,1-.08-.49c0-.09,0-.71,0-1.87V91.47q0-.75,0-2.16l-.14-.11a7.09,7.09,0,0,1-2.14.56v.37a4.13,4.13,0,0,1,.89.05"/><path class="cls-1" d="M252.5,90.35h.27v3c0,.36,0,.68,0,1a2.16,2.16,0,0,0,.15.69,1,1,0,0,0,.28.36,1.6,1.6,0,0,0,.38.23,1.7,1.7,0,0,0,.56.07,3.58,3.58,0,0,0,.49,0,1.81,1.81,0,0,0,.47-.12l.59-.51-.08-.26a2.55,2.55,0,0,1-.42.12l-.43,0a1.35,1.35,0,0,1-.5-.13.76.76,0,0,1-.24-.23,1.15,1.15,0,0,1-.13-.34,9.26,9.26,0,0,1,0-1.18l0-2.71h1.75l.14-.59,0,0a4.81,4.81,0,0,1-.52,0h-1.33c.06-1.26.11-2.08.15-2.44l-.15-.14a5.17,5.17,0,0,1-1.1.51v2a9.23,9.23,0,0,1-1,.43v.28a7.06,7.06,0,0,1,.74-.05"/><path class="cls-1" d="M257.24,86.5A.71.71,0,0,0,257,87a.67.67,0,0,0,.22.52.69.69,0,0,0,.53.22.73.73,0,0,0,.53-.22.7.7,0,0,0,.21-.52.74.74,0,0,0-.21-.53.71.71,0,0,0-.53-.22.69.69,0,0,0-.53.22m-.19,3.68a.23.23,0,0,1,.14.15,5,5,0,0,1,.07,1.18v1.17c0,1.21,0,1.85,0,1.91a1.22,1.22,0,0,1-.1.47.29.29,0,0,1-.11.11.49.49,0,0,1-.23,0h-.64v.37c.81,0,1.39,0,1.74,0s.94,0,1.62,0v-.37l-.74,0a.34.34,0,0,1-.16-.07.28.28,0,0,1-.09-.1,1.46,1.46,0,0,1-.07-.49c0-.09,0-.71,0-1.87V91.47q0-.75,0-2.16l-.14-.11a7,7,0,0,1-2.14.56v.37a4.13,4.13,0,0,1,.89.05"/><path class="cls-1" d="M261.5,92.07a5.43,5.43,0,0,0,.27,1.66,2.45,2.45,0,0,0,.8,1.23,1.84,1.84,0,0,0,1.13.39,1.63,1.63,0,0,0,1.3-.61,2.83,2.83,0,0,0,.52-1.88,4.78,4.78,0,0,0-.31-1.82,2.36,2.36,0,0,0-.79-1.09,1.94,1.94,0,0,0-1.07-.31,1.68,1.68,0,0,0-1.34.59,2.79,2.79,0,0,0-.51,1.84m-1.25.48a3.27,3.27,0,0,1,.95-2.42,3.31,3.31,0,0,1,2.42-.93,3.11,3.11,0,0,1,2.28.87,3,3,0,0,1,.87,2.25,3.53,3.53,0,0,1-.45,1.77,3.25,3.25,0,0,1-1.27,1.25,3.78,3.78,0,0,1-1.82.45,3,3,0,0,1-1.3-.25,2.68,2.68,0,0,1-.87-.65,3.36,3.36,0,0,1-.51-.8,4,4,0,0,1-.3-1.54"/><path class="cls-1" d="M267.38,95.6v-.37H268a.42.42,0,0,0,.22,0,.26.26,0,0,0,.12-.11,1.27,1.27,0,0,0,.1-.47c0-.06,0-.7,0-1.91v-.8c0-.35,0-.73,0-1.15a1.56,1.56,0,0,0-.07-.46.25.25,0,0,0-.15-.11,3.82,3.82,0,0,0-.86,0v-.37a7.25,7.25,0,0,0,1.95-.47.74.74,0,0,1,.18-.07.08.08,0,0,1,.07,0,.12.12,0,0,1,0,.09v.11q0,.23,0,1l1.23-1a3.13,3.13,0,0,1,1-.2,2.39,2.39,0,0,1,1,.22,1.73,1.73,0,0,1,.72.55,2,2,0,0,1,.33.84c0,.2,0,.76,0,1.67v1.18c0,.58,0,1,0,1.18a.57.57,0,0,0,.11.27.3.3,0,0,0,.21.1l.71,0v.37c-.42,0-.78,0-1.06,0s-.65,0-1.22,0c0-1.1.07-1.79.07-2.07V92.41a7.73,7.73,0,0,0-.07-1.36,1.24,1.24,0,0,0-.51-.72,1.69,1.69,0,0,0-1-.27,1.88,1.88,0,0,0-.91.22,1.53,1.53,0,0,0-.58.54,2.22,2.22,0,0,0-.18,1v.81c0,1.16,0,1.79,0,1.88a1.41,1.41,0,0,0,.08.49.35.35,0,0,0,.08.1.39.39,0,0,0,.17.07l.73,0v.37c-.54,0-1,0-1.47,0s-1,0-1.82,0"/></svg>